<svg width="35" height="35" viewBox="0 0 35 35" fill="none" xmlns="http://www.w3.org/2000/svg">
<path fill-rule="evenodd" clip-rule="evenodd" d="M19.0426 3.31516C18.0909 2.78378 16.9372 2.78378 15.9711 3.31516L6.90079 8.31889C6.23746 8.6879 5.83366 9.41121 5.83366 10.2083C5.83366 11.0053 6.23746 11.7286 6.90079 12.0976L15.9711 17.1014C16.4469 17.3671 16.9805 17.5 17.4996 17.5C18.0188 17.5 18.5523 17.3671 19.0282 17.1014L28.0985 12.0976C28.7618 11.7286 29.1656 11.0053 29.1656 10.2083C29.1944 9.41121 28.7763 8.6879 28.1129 8.31889L19.0426 3.31516ZM5.84926 14.8045C5.21487 14.4769 4.48181 14.5196 3.87561 14.89C3.26942 15.2603 2.91699 15.9156 2.91699 16.6279V24.5051C2.91699 25.8726 3.66414 27.0977 4.87653 27.7102L13.1236 31.8697C13.4055 32.0121 13.7157 32.0833 14.0259 32.0833C14.3924 32.0833 14.7589 31.9836 15.0832 31.77C15.6894 31.3996 16.0418 30.7443 16.0418 30.0321V22.1548C16.0559 20.8158 15.3087 19.5907 14.0963 18.9782L5.84926 14.8045ZM31.125 14.89C30.5188 14.5196 29.7858 14.4769 29.1514 14.8045L20.9043 18.9782C19.6919 19.5907 18.9448 20.8158 18.9589 22.1548V30.0321C18.9589 30.7443 19.3113 31.3996 19.9175 31.77C20.2417 31.9836 20.6083 32.0833 20.9748 32.0833C21.2849 32.0833 21.5951 32.0121 21.8771 31.8697L30.1241 27.7102C31.3365 27.0977 32.0837 25.8726 32.0837 24.5051V16.6279C32.0837 15.9156 31.7312 15.2603 31.125 14.89Z" fill="#BDBDBD"/>
</svg>
