<svg width="31" height="31" viewBox="0 0 31 31" fill="none" xmlns="http://www.w3.org/2000/svg">
<path fill-rule="evenodd" clip-rule="evenodd" d="M12.5838 3.83329C12.5838 2.22246 13.8896 0.916626 15.5005 0.916626C17.1112 0.916626 18.4171 2.22246 18.4171 3.83329C18.4171 4.04965 18.5638 4.23757 18.7715 4.29814C19.5908 4.53697 20.3728 4.86324 21.1067 5.26615C21.2969 5.37055 21.5342 5.34137 21.6875 5.18798C22.8266 4.04895 24.6732 4.04895 25.8123 5.18798C26.9513 6.32701 26.9513 8.17375 25.8123 9.31278C25.6589 9.46616 25.6298 9.70345 25.7342 9.8936C26.1371 10.6276 26.4633 11.4096 26.7022 12.2288C26.7627 12.4365 26.9507 12.5833 27.167 12.5833C28.7779 12.5833 30.0837 13.8891 30.0837 15.5C30.0837 17.1108 28.7779 18.4166 27.167 18.4166C26.9507 18.4166 26.7627 18.5633 26.7022 18.7711C26.4633 19.5903 26.1371 20.3724 25.7342 21.1064C25.6298 21.2964 25.6589 21.5338 25.8123 21.6871C26.9513 22.8262 26.9513 24.6729 25.8123 25.812C24.6732 26.9509 22.8266 26.9509 21.6875 25.812C21.5342 25.6586 21.2968 25.6294 21.1067 25.7338C20.3728 26.1368 19.5908 26.463 18.7715 26.7019C18.5638 26.7624 18.4171 26.9502 18.4171 27.1666C18.4171 28.7775 17.1112 30.0833 15.5005 30.0833C13.8896 30.0833 12.5838 28.7775 12.5838 27.1666C12.5838 26.9504 12.437 26.7624 12.2293 26.7019C11.41 26.463 10.628 26.1368 9.89397 25.7338C9.70382 25.6294 9.46653 25.6586 9.31314 25.812C8.17411 26.9509 6.32738 26.9509 5.18835 25.812C4.04932 24.6729 4.04932 22.8262 5.18835 21.6871C5.34174 21.5338 5.37092 21.2964 5.26652 21.1064C4.86358 20.3724 4.53731 19.5903 4.29846 18.7711C4.23791 18.5633 4.05 18.4166 3.83366 18.4166C2.22283 18.4166 0.916992 17.1108 0.916992 15.5C0.916992 13.8891 2.22283 12.5833 3.83366 12.5833C4.05 12.5833 4.23791 12.4365 4.29846 12.2288C4.53731 11.4096 4.86358 10.6276 5.26652 9.8936C5.37092 9.70345 5.34174 9.46616 5.18835 9.31278C4.04932 8.17375 4.04932 6.32701 5.18835 5.18798C6.32738 4.04895 8.17411 4.04895 9.31314 5.18798C9.46653 5.34137 9.70382 5.37055 9.89397 5.26615C10.628 4.8632 11.41 4.53691 12.2293 4.29806C12.437 4.23751 12.5838 4.04962 12.5838 3.83329ZM19.8755 15.5C19.8755 17.9163 17.9168 19.875 15.5005 19.875C13.0843 19.875 11.1255 17.9163 11.1255 15.5C11.1255 13.0836 13.0843 11.125 15.5005 11.125C17.9168 11.125 19.8755 13.0836 19.8755 15.5Z" fill="#BDBDBD"/>
</svg>
