<svg width="35" height="35" viewBox="0 0 35 35" fill="none" xmlns="http://www.w3.org/2000/svg">
<path fill-rule="evenodd" clip-rule="evenodd" d="M14.2434 4.02511C16.0643 2.53761 18.9317 2.55219 20.7669 4.03969L30.158 11.6814C31.477 12.7751 32.2942 14.9626 32.0362 16.6688L30.2297 27.6647C29.8139 30.1001 27.5199 32.0834 25.0968 32.0834H9.89916C7.44746 32.0834 5.19648 30.1438 4.78069 27.6793L2.97418 16.6834C2.68743 14.9626 3.50466 12.7751 4.85238 11.6814L14.2434 4.02511ZM17.5003 26.2501C19.1112 26.2501 20.417 24.9442 20.417 23.3334C20.417 21.7226 19.1112 20.4167 17.5003 20.4167C15.8895 20.4167 14.5837 21.7226 14.5837 23.3334C14.5837 24.9442 15.8895 26.2501 17.5003 26.2501Z" fill="#FF7A28"/>
</svg>
